<svg xmlns="http://www.w3.org/2000/svg" width="36" height="36" fill="none" viewBox="0 0 36 36">
    <g clip-path="url(#clip0)">
        <path fill="#000" fill-rule="evenodd" d="M.865-.001C.417.003.054.37.058.823c0 .22.09.429.249.58l16.548 16.571L.307 34.545c-.351.282-.404.796-.123 1.148.282.35.795.404 1.146.122.045-.037.086-.078.122-.122L18.001 19.12l16.548 16.572c.282.35.795.404 1.146.122.35-.282.404-.796.122-1.147-.036-.045-.077-.086-.122-.123l-16.549-16.57L35.695 1.402c.322-.314.334-.829.02-1.155-.159-.164-.379-.253-.607-.25-.212.009-.416.099-.563.254l-16.548 16.57L1.452.257C1.297.093 1.085.003.865-.001z" clip-rule="evenodd"/>
    </g>
    <defs>
        <clipPath id="clip0">
            <path fill="#fff" d="M0 0H36V36H0z"/>
        </clipPath>
    </defs>
</svg>
