<svg xmlns="http://www.w3.org/2000/svg" width="13" height="19" fill="none" viewBox="0 0 13 19">
    <path fill="#D40000" d="M6.75 19C2.652 19 0 16.336 0 12.217c0-3.74 2.985-6.992 3.113-7.13.116-.126.293-.175.457-.133.165.044.293.175.332.343.244 1.029.604 2.06.84 2.449.372-.352 1.101-1.341 1.296-3.144.246-2.249-.46-3.935-.467-3.951-.083-.196-.025-.425.144-.553.168-.13.402-.13.57 0 .097.077 2.434 1.913 4.115 4.27C11.514 5.937 13 8.43 13 11.964 13 16.106 10.43 19 6.75 19zM3.232 6.407C2.398 7.506.93 9.79.93 12.217c0 3.609 2.23 5.85 5.822 5.85 3.134 0 5.32-2.51 5.32-6.104 0-2.486-.77-4.725-2.428-7.05-.884-1.24-1.978-2.345-2.788-3.091.14.758.23 1.751.107 2.883-.293 2.691-1.664 4.002-2.159 4.072-.02.002-.065.007-.086.007-.232-.002-.805-.002-1.486-2.377z"/>
</svg>
